<?xml version="1.0" encoding="UTF-8"?>
<svg width="138px" height="44px" viewBox="0 0 138 44" version="1.1" xmlns="http://www.w3.org/2000/svg" xmlns:xlink="http://www.w3.org/1999/xlink">
    <title>logo</title>
    <defs>
        <polygon id="path-1" points="0 44 138 44 138 0 0 0"></polygon>
    </defs>
    <g id="登陆页" stroke="none" stroke-width="1" fill="none" fill-rule="evenodd">
        <g id="注册" transform="translate(-36.000000, -8.000000)">
            <g id="logo" transform="translate(36.000000, 8.000000)">
                <mask id="mask-2" fill="white">
                    <use xlink:href="#path-1"></use>
                </mask>
                <g id="Clip-6"></g>
                <path d="M12,31 L12,33.951737 C12,34.5171369 12.1947054,34.9997668 12.5852548,35.4007927 C12.9769428,35.8006528 13.4483348,36 13.9994307,36 C14.5505266,36 15.0219186,35.8006528 15.4147452,35.4007927 C15.804156,34.9997668 16,34.5171369 16,33.951737 L16,33.9074376 L16,31 L15.1323655,31 L15.1323655,33.951737 C15.1323655,33.966892 15.1335041,33.9797156 15.1357814,33.9902075 C15.1243951,34.3038004 15.0082551,34.5695966 14.7884999,34.7840989 C14.5687447,35.0055957 14.3057216,35.1151784 13.9994307,35.1151784 C13.686308,35.1151784 13.4187304,35.0020984 13.196698,34.7736069 C12.9746655,34.5462812 12.86308,34.2734903 12.86308,33.951737 L12.86308,31 L12,31 Z" id="Fill-1" fill="#FFFFFF" mask="url(#mask-2)"></path>
                <path d="M17.7221924,31.1579736 C17.6663084,31.0856697 17.5964535,31.0378559 17.5137023,31.0156982 C17.4298764,30.9912082 17.3481999,30.995873 17.2697474,31.026194 C17.1880709,31.0588473 17.1225148,31.1136583 17.073079,31.1894607 C17.0247179,31.2664294 17,31.3515613 17,31.4436905 L17,36 L17.8146158,36 L17.8146158,32.660028 L20.2778076,35.8437304 C20.3584095,35.9475214 20.4637292,36 20.5916174,36 C20.6389038,36 20.6851155,35.9918367 20.7302526,35.9720114 C20.8119291,35.9428566 20.8764105,35.8892118 20.9258463,35.8122432 C20.9752821,35.7352746 21,35.6513088 21,35.5580135 L21,31.0017039 L20.1843095,31.0017039 L20.1843095,34.3416759 L17.7221924,31.1579736 Z" id="Fill-3" fill="#FFFFFF" mask="url(#mask-2)"></path>
                <polygon id="Fill-5" fill="#FFFFFF" mask="url(#mask-2)" points="21.1205 36 21.8795 36 21.8795 31 21.1205 31"></polygon>
                <path d="M23.3578089,32.3581254 C23.6736597,32.0433668 24.0547786,31.888319 24.5,31.888319 C24.9452214,31.888319 25.3251748,32.0433668 25.6410256,32.3581254 C25.9568765,32.6740499 26.1153846,33.0540919 26.1153846,33.4994171 C26.1153846,33.9447424 25.9568765,34.3259501 25.6410256,34.6418746 C25.3251748,34.9566332 24.9452214,35.1151784 24.5,35.1151784 C24.0547786,35.1151784 23.6736597,34.9566332 23.3578089,34.6418746 C23.041958,34.3259501 22.8846154,33.9447424 22.8846154,33.4994171 C22.8846154,33.0540919 23.041958,32.6740499 23.3578089,32.3581254 M24.5,36 C25.1888112,36 25.7773893,35.7551877 26.2645688,35.2655631 C26.7552448,34.7771042 27,34.1883889 27,33.4994171 C27,32.8104453 26.7552448,32.22173 26.2645688,31.7344369 C25.7773893,31.2448123 25.1888112,31 24.5,31 C23.8100233,31 23.2214452,31.2448123 22.7342657,31.7344369 C22.2447552,32.22173 22,32.8104453 22,33.4994171 C22,34.1883889 22.2447552,34.7771042 22.7342657,35.2655631 C23.2214452,35.7551877 23.8100233,36 24.5,36" id="Fill-7" fill="#FFFFFF" mask="url(#mask-2)"></path>
                <path d="M27,36 L27.8156905,36 L27.8156905,32.6600913 L30.2778076,35.8425672 C30.3584095,35.9475224 30.4637292,36 30.5916174,36 C30.6389038,36 30.6851155,35.9906706 30.7302526,35.9720119 C30.8108544,35.9416915 30.8764105,35.8880478 30.9258463,35.8122468 C30.9752821,35.7341134 31,35.6501492 31,35.5580219 L31,31.0017987 L30.1843095,31.0017987 L30.1843095,34.3417074 L27.7221924,31.1580654 C27.6663084,31.0857629 27.5964535,31.0379499 27.5137023,31.0157927 C27.4298764,30.9913032 27.3481999,30.9959678 27.2686728,31.0251221 C27.1880709,31.058941 27.1225148,31.1137509 27.073079,31.1895519 C27.0236432,31.2653529 27,31.3516494 27,31.4437768 L27,36 Z" id="Fill-8" fill="#FFFFFF" mask="url(#mask-2)"></path>
                <path d="M6.50346687,17.4860452 L6.50346687,29 L9.04237288,29 L9.04237288,17.4860452 L14,17.4860452 L14,15.0097684 L4.94506934,15.0097684 C4.94707242,15.005861 4.9490755,15.0029305 4.95007704,15 L1.74915254,15 C1.748151,15.0029305 1.74614792,15.005861 1.74514638,15.0097684 C1.44969183,15.8156573 1.19329738,16.6381524 1,17.4860452 L4.09976888,17.4860452 L6.50346687,17.4860452 Z" id="Fill-9" fill="#FFFFFF" mask="url(#mask-2)"></path>
                <path d="M39.6449773,26.0332356 L36.2479731,21.9951124 L39.6449773,17.9638319 L42,15.1681329 C41.9793871,15.111437 41.9567129,15.056696 41.9350694,15 L38.7885117,15 L38.6906005,15.1163245 L34.5711145,20.0146628 L30.3434107,15 L27,15 L32.8942559,22.0048876 L27,29 L30.3434107,29 L34.5711145,23.9853372 L38.6906005,28.884653 L38.7885117,29 L41.9350694,29 C41.9567129,28.9442815 41.9793871,28.888563 42,28.8318671 L39.6449773,26.0332356 Z" id="Fill-10" fill="#FFFFFF" mask="url(#mask-2)"></path>
                <path d="M21.5,3.11004785 C28.4567459,3.11004785 34.5117286,7.11475279 37.6452802,13 L41,13 C37.6281899,5.34617225 30.168789,0 21.5,0 C12.831211,0 5.37080476,5.34617225 2,13 L5.35170387,13 C8.48425014,7.11475279 14.5422488,3.11004785 21.5,3.11004785" id="Fill-11" fill="#FFFFFF" mask="url(#mask-2)"></path>
                <path d="M21.9905223,40.918146 C11.5707025,40.918146 3.09377072,32.4738659 3.09377072,22.0941815 C3.09377072,21.0371055 3.19895892,20.006739 3.3742726,19 L0.237189088,19 C0.087656837,20.0108481 0,21.0412147 0,22.0941815 C0,34.1729947 9.86500356,44 21.9905223,44 C30.8871756,44 38.5432269,38.6981838 42,31.1086045 L38.5576644,31.1086045 C35.3452992,36.9456361 29.1309451,40.918146 21.9905223,40.918146" id="Fill-12" fill="#FFFFFF" mask="url(#mask-2)"></path>
                <path d="M26,29 L19.6786369,15.663271 C19.4678569,15.2207647 19.0758265,15 18.4994909,15 C17.9241735,15 17.5311248,15.2207647 17.3213631,15.663271 L11,29 L13.8348381,29 L18.4994909,19.1720625 L23.1641436,29 L26,29 Z" id="Fill-13" fill="#FFFFFF" mask="url(#mask-2)"></path>
                <path d="M25,35 C25.0848356,34.7794274 25.2131495,34.5705196 25.3913043,34.3923648 C25.5705196,34.21421 25.7783669,34.0858961 26,34.0010604 C25.7783669,33.9162248 25.5705196,33.7868505 25.3913043,33.6086957 C25.2131495,33.4305408 25.0848356,33.2216331 25,33 C24.9151644,33.2216331 24.7868505,33.4305408 24.6076352,33.6086957 C24.4294804,33.7868505 24.2216331,33.9162248 24,34.0010604 C24.2216331,34.0858961 24.4294804,34.21421 24.6076352,34.3923648 C24.78579,34.5705196 24.9151644,34.7794274 25,35" id="Fill-14" fill="#F29700" mask="url(#mask-2)"></path>
                <polygon id="Fill-15" fill="#F29700" mask="url(#mask-2)" points="18.9230511 22 16 29 22 29"></polygon>
                <path d="M50.5389188,22.4559766 L50,35 L51.6790263,35 C52.621002,35 53.3954147,34.3592923 53.4327767,33.5479242 L54,21 L52.2926691,21 C51.3484291,21 50.5740164,21.6436333 50.5389188,22.4559766" id="Fill-16" fill="#FFFFFF" mask="url(#mask-2)"></path>
                <path d="M65.7618471,21.1367828 L65.7618471,16.509034 C65.7618471,16.0804089 66.1117161,15.7329021 66.5432547,15.7329021 L72.9528131,15.7329021 C73.3843517,15.7329021 73.7342206,16.0804089 73.7342206,16.509034 L73.7342206,21.1367828 C73.7342206,21.5654079 73.3843517,21.9129147 72.9528131,21.9129147 L66.5432547,21.9129147 C66.1117161,21.9129147 65.7618471,21.5654079 65.7618471,21.1367828 M77,21.9599833 L77,15.7138744 C77,14.7084081 76.1782617,13.8932193 75.1649526,13.8932193 L74.9149022,13.8932193 L75.9725751,11 L72.7451099,11 L71.687437,13.8932193 L67.5283323,13.8932193 L66.7469248,11 L63.5204678,11 L64.3311151,13.8932193 C63.317806,13.8932193 62.497076,14.7084081 62.497076,15.7138744 L62.497076,21.9599833 C62.497076,22.9664511 63.317806,23.7816399 64.3311151,23.7816399 L65.2193991,23.7816399 L64.3754789,31.6891717 C64.3169994,32.5013561 63.6374269,33.1312748 62.8166969,33.1312748 L62,33.1312748 L62,35 L63.871345,35 C65.8243597,35 67.5545473,33.455748 67.666465,31.8273733 L68.4811454,23.7816399 L75.1649526,23.7816399 C76.1782617,23.7816399 77,22.9664511 77,21.9599833" id="Fill-17" fill="#FFFFFF" mask="url(#mask-2)"></path>
                <path d="M72,23 L72,31.3769251 C72,33.3774471 73.6117545,35 75.6,35 L78,35 L78,33.0516836 L76.7668107,33.0516836 C75.8779602,33.0516836 75.1592048,32.3270687 75.1592048,31.4333072 L75.1592048,23 L72,23 Z" id="Fill-18" fill="#FFFFFF" mask="url(#mask-2)"></path>
                <polygon id="Fill-19" fill="#FFFFFF" mask="url(#mask-2)" points="80 13.4396451 84.8264224 13.4396451 84.8264224 14.5943264 80 14.5943264 80 16.2848471 84.8264224 16.2848471 84.8264224 17.3806911 80 17.3806911 80 19.0712118 84.8264224 19.0712118 84.8264224 20 88.1432819 20 88.1432819 19.0712118 92.970749 19.0712118 92.970749 17.3806911 88.1432819 17.3806911 88.1432819 16.2848471 93 16.2848471 93 14.5943264 88.1432819 14.5943264 88.1432819 13.4396451 92.970749 13.4396451 92.970749 11.8079617 88.1432819 11.8079617 88.1432819 11 84.8264224 11 84.8264224 11.8079617 80 11.8079617"></polygon>
                <polygon id="Fill-20" fill="#FFFFFF" mask="url(#mask-2)" points="94 13.4396451 98.8376963 13.4396451 98.8376963 14.5943264 94 14.5943264 94 16.2848471 98.8376963 16.2848471 98.8376963 17.3806911 94 17.3806911 94 19.0712118 98.8376963 19.0712118 98.8376963 20 102.162304 20 102.162304 19.0712118 107 19.0712118 107 17.3806911 102.162304 17.3806911 102.162304 16.2848471 107 16.2848471 107 14.5943264 102.162304 14.5943264 102.162304 13.4396451 107 13.4396451 107 11.8079617 102.162304 11.8079617 102.162304 11 98.8376963 11 98.8376963 11.8079617 94 11.8079617"></polygon>
                <path d="M80,26.0205613 L80,28 L103.800459,28 C105.567431,28 107,26.4584607 107,24.5545985 L107,23.4454015 C107,21.5426507 105.567431,20 103.800459,20 L80.0299312,20 L80.0299312,21.9160878 L103.158486,21.9160878 L103.158486,23.0108363 L80.0299312,23.0108363 L80.0299312,24.9891637 L103.158486,24.9891637 L103.158486,26.0205613 L80,26.0205613 Z" id="Fill-21" fill="#FFFFFF" mask="url(#mask-2)"></path>
                <path d="M108,35 L107.35022,30.3647376 C107.242291,29.5854643 106.515419,29 105.657489,29 L103,29 L103.64978,33.634253 C103.758811,34.4145357 104.484581,35 105.342511,35 L108,35 Z" id="Fill-22" fill="#FFFFFF" mask="url(#mask-2)"></path>
                <path d="M93,29 L93.2878545,30.6297615 C93.4258962,31.4222143 94.1150348,32 94.9208133,32 L101,32 L100.712146,30.3691705 C100.573034,29.5777857 99.8838951,29 99.0791867,29 L93,29 Z" id="Fill-23" fill="#FFFFFF" mask="url(#mask-2)"></path>
                <path d="M87,29 L87,31.8707941 C87,33.5989233 88.4393363,35 90.2156931,35 L102,35 L102,33.2032301 L92.6432769,33.2032301 C91.755617,33.2032301 91.0369858,32.5026918 91.0369858,31.6376178 L91.0369858,29 L87,29 Z" id="Fill-24" fill="#FFFFFF" mask="url(#mask-2)"></path>
                <path d="M80.6698774,30.3584525 L80,35 L82.6718476,35 C83.525613,35 84.2469352,34.4146341 84.3552977,33.6334735 L85,29 L82.3511384,29 C81.5017513,29 80.7826182,29.5813288 80.6698774,30.3584525" id="Fill-25" fill="#FFFFFF" mask="url(#mask-2)"></path>
                <path d="M59.495544,12.8911117 C60.326392,12.8911117 61,12.1881489 61,11.3210939 L61,11 L50,11 L50,12.8911117 L55.2296832,12.8911117 L55.2296832,17.1088883 L50,17.1088883 L50,18.9989871 L55.2296832,18.9989871 L55.2296832,35 L58.4006883,35 L58.4006883,25.3246391 L61,25.3246391 L61,23.462902 L58.4006883,23.462902 L58.4006883,18.9989871 L61,18.9989871 L61,17.1088883 L58.4006883,17.1088883 L58.4006883,12.8911117 L59.495544,12.8911117 Z" id="Fill-26" fill="#FFFFFF" mask="url(#mask-2)"></path>
                <polygon id="Fill-27" fill="#FFFFFF" mask="url(#mask-2)" points="118 34 122 34 122 29 118 29"></polygon>
                <polygon id="Fill-28" fill="#FFFFFF" mask="url(#mask-2)" points="126 34 130 34 130 29 126 29"></polygon>
                <path d="M133.516962,33.1733739 L131.162985,33.1733739 L129.762608,33.1733739 L126.265737,33.1733739 L123.059932,33.1733739 L119.562043,33.1733739 L117.073728,33.1733739 L115.252017,33.1733739 L115.252017,27.8266261 L117.073728,27.8266261 L119.562043,27.8266261 L123.059932,27.8266261 L126.265737,27.8266261 L129.762608,27.8266261 L131.162985,27.8266261 L133.516962,27.8266261 L133.516962,33.1733739 Z M137.014851,33.1733739 L137.014851,29.0336089 C137.014851,27.3587122 135.601244,26 133.858914,26 L114.909046,26 C113.166717,26 111.754127,27.3587122 111.754127,29.0336089 L111.754127,33.1733739 L111,33.1733739 L111,35 L138,35 L138,33.1733739 L137.014851,33.1733739 Z" id="Fill-29" fill="#FFFFFF" mask="url(#mask-2)"></path>
                <path d="M133.840426,10 L127.157536,10 C125.413199,10 124,11.4610526 124,13.2631579 L124,24 L127.704679,24 L127.704679,20.4284211 L132.07673,20.4284211 L132.07673,18.4642105 L127.704679,18.4642105 L127.704679,16.1968421 L132.07673,16.1968421 L132.07673,14.2315789 L127.704679,14.2315789 L127.704679,11.9652632 L133.295321,11.9652632 L133.295321,13.7726316 L133.295321,14.2315789 L133.295321,16.1968421 L133.295321,18.4642105 L133.295321,20.4284211 L133.295321,21.7989474 L133.295321,24 L134.024845,24 C135.667294,24 137,22.6242105 137,20.9263158 L137,13.2631579 C137,11.4610526 135.585783,10 133.840426,10" id="Fill-30" fill="#FFFFFF" mask="url(#mask-2)"></path>
                <path d="M119.396854,13.7244656 L119.396854,16.0449822 L119.396854,17.9539786 L119.396854,21.6483076 L119.396854,22.0598278 L114.575619,22.0598278 L114.575619,17.9539786 L118.222022,17.9539786 L118.222022,16.0449822 L114.575619,16.0449822 L114.575619,11.9401722 L119.396854,11.9401722 L119.396854,13.7244656 Z M119.951335,10 L114.048665,10 C112.365558,10 111,11.442399 111,13.2214964 L111,20.7785036 C111,22.557601 112.365558,24 114.048665,24 L119.951335,24 C121.634442,24 123,22.557601 123,20.7785036 L123,13.2214964 C123,11.442399 121.634442,10 119.951335,10 L119.951335,10 Z" id="Fill-31" fill="#FFFFFF" mask="url(#mask-2)"></path>
            </g>
        </g>
    </g>
</svg>