<?xml version="1.0" encoding="UTF-8"?>
<svg width="20px" height="20px" viewBox="0 0 20 20" version="1.1" xmlns="http://www.w3.org/2000/svg" xmlns:xlink="http://www.w3.org/1999/xlink">
    <title>32C28AEB-A0AA-4687-8087-A13075017C4C</title>
    <defs>
        <rect id="path-1" x="0" y="0" width="20" height="20"></rect>
    </defs>
    <g id="10/11" stroke="none" stroke-width="1" fill="none" fill-rule="evenodd">
        <g id="登录" transform="translate(-630.000000, -356.000000)">
            <g id="编组" transform="translate(592.000000, 186.000000)">
                <g id="密码" transform="translate(38.000000, 170.000000)">
                    <mask id="mask-2" fill="white">
                        <use xlink:href="#path-1"></use>
                    </mask>
                    <use id="矩形" fill-opacity="0" fill="#D8D8D8" xlink:href="#path-1"></use>
                    <path d="M3.5,10.9539776 C3.5,12.7649094 4.19259787,14.405493 5.3158168,15.5926268 C6.42929638,16.7694671 7.96680857,17.5 9.66666667,17.5 C11.3665248,17.5 12.904037,16.7694671 14.0175165,15.5926268 C15.1407355,14.405493 15.8333333,12.7649094 15.8333333,10.9539776 C15.8333333,9.84098197 15.5867556,9.17728769 15.0474865,8.8437008 C14.2776317,8.36747563 13.0796169,8.48157905 11.6861697,8.56089888 C11.0484268,8.59720142 10.3700854,8.63556867 9.66666667,8.63556867 C8.96324794,8.63556867 8.28490655,8.59720142 7.64716361,8.56089888 C6.25371641,8.48157905 5.05570166,8.36747563 4.2858468,8.8437008 C3.74657778,9.17728769 3.5,9.84098197 3.5,10.9539776 Z" id="椭圆形" stroke="#282828" mask="url(#mask-2)"></path>
                    <rect id="矩形" fill="#282828" mask="url(#mask-2)" x="9.24659586" y="10.9786955" width="1" height="3" rx="0.5"></rect>
                    <path d="M6.6489572,8 L6.6489572,6.46153846 C6.6489572,4.54978356 7.99210295,3 9.6489572,3 C11.3058114,3 12.6489572,4.54978356 12.6489572,6.46153846 L12.6489572,8" id="路径" stroke="#282828" stroke-linecap="round" mask="url(#mask-2)"></path>
                </g>
            </g>
        </g>
    </g>
</svg>