<?xml version="1.0" encoding="UTF-8"?>
<svg width="16px" height="16px" viewBox="0 0 16 16" version="1.1" xmlns="http://www.w3.org/2000/svg" xmlns:xlink="http://www.w3.org/1999/xlink">
    <title>1EC9DE15-B102-4537-952A-9BC1DD08D56B</title>
    <defs>
        <rect id="path-1" x="0" y="0" width="16" height="16"></rect>
    </defs>
    <g id="配置中心" stroke="none" stroke-width="1" fill="none" fill-rule="evenodd">
        <g id="自定义模版/弹窗" transform="translate(-160.000000, -274.000000)">
            <g id="编组-10" transform="translate(60.000000, 90.000000)">
                <g id="编组-9" transform="translate(24.000000, 62.000000)">
                    <g id="新增帐套" transform="translate(76.000000, 122.000000)">
                        <mask id="mask-2" fill="white">
                            <use xlink:href="#path-1"></use>
                        </mask>
                        <g id="矩形"></g>
                        <g id="疑问" mask="url(#mask-2)" fill-rule="nonzero">
                            <g transform="translate(1.142857, 1.142857)">
                                <path d="M6.48915816,11.686121 C6.48915816,12.1161846 6.83779357,12.46482 7.26785714,12.46482 C7.69792071,12.46482 8.04655612,12.1161846 8.04655612,11.686121 C8.04655612,11.2560574 7.69792071,10.907422 7.26785714,10.907422 C6.83779357,10.907422 6.48915816,11.2560574 6.48915816,11.686121 L6.48915816,11.686121 Z M7.26785714,14.5357143 C3.26015306,14.5357143 0,11.2755612 0,7.26785714 C0,3.26015306 3.26015306,0 7.26785714,0 C11.2755612,0 14.5357143,3.26015306 14.5357143,7.26785714 C14.5357143,11.2755612 11.2755612,14.5357143 7.26785714,14.5357143 Z" id="形状" fill="#999999"></path>
                                <path d="M7.26785714,9.8911086 C6.9811481,9.8911086 6.74872449,9.65868499 6.74872449,9.37197595 L6.74872449,8.49390015 C6.74872449,7.64459913 7.39749198,6.99583163 7.97091108,6.42330248 C8.39066691,6.00265671 8.8252551,5.56895845 8.8252551,5.22247449 C8.8252551,4.35715452 8.12635423,3.65321064 7.26785714,3.65321064 C6.39482434,3.65321064 5.71045918,4.3268965 5.71045918,5.18717347 C5.71045918,5.47388252 5.47803558,5.70630612 5.19132653,5.70630612 C4.90461748,5.70630612 4.67219388,5.47388252 4.67219388,5.18717347 C4.67219388,3.76890306 5.83653426,2.61494534 7.26785714,2.61494534 C8.69918003,2.61494534 9.86352041,3.78432872 9.86352041,5.22247449 C9.86352041,5.99969023 9.27437901,6.58823834 8.70481633,7.15780102 C8.25302259,7.60840816 7.7869898,8.07444096 7.7869898,8.4936035 L7.7869898,9.37138265 C7.7869898,9.65794388 7.55441837,9.8911086 7.26785714,9.8911086 L7.26785714,9.8911086 Z" id="路径" fill="#FDFDFD"></path>
                            </g>
                        </g>
                    </g>
                </g>
            </g>
        </g>
    </g>
</svg>