<?xml version="1.0" encoding="UTF-8"?>
<svg width="14px" height="14px" viewBox="0 0 14 14" version="1.1" xmlns="http://www.w3.org/2000/svg" xmlns:xlink="http://www.w3.org/1999/xlink">
    <title>BC5B3050-2F3D-45BE-9858-F6EDD3DBE27E</title>
    <defs>
        <rect id="path-1" x="0" y="0" width="14" height="14"></rect>
    </defs>
    <g id="配置中心" stroke="none" stroke-width="1" fill="none" fill-rule="evenodd">
        <g id="自定义模版/弹窗" transform="translate(-192.000000, -327.000000)">
            <g id="编组-10" transform="translate(60.000000, 90.000000)">
                <g id="编组-9" transform="translate(24.000000, 62.000000)">
                    <g id="编组-12备份" transform="translate(108.000000, 172.000000)">
                        <g id="上传" transform="translate(0.000000, 3.000000)">
                            <mask id="mask-2" fill="white">
                                <use xlink:href="#path-1"></use>
                            </mask>
                            <g id="矩形"></g>
                            <path d="M12.7668436,8.28558029 C12.6917895,7.99474555 12.3947002,7.81961926 12.1023019,7.89310976 C11.8099035,7.96816388 11.6347772,8.26681676 11.7098313,8.55765149 L12.1664106,10.3229871 L1.98094031,10.3229871 L2.39999251,8.70463249 C2.47504663,8.41223412 2.29992034,8.11514488 2.00752197,8.04009075 C1.71668724,7.96503663 1.41803436,8.14016292 1.34298024,8.43256128 L0.573675451,11.4097083 L0.573675451,11.4785079 C0.573675451,12.3463212 1.28043513,13.0530809 2.14824846,13.0530809 L11.9991024,13.0530809 C12.8669158,13.0530809 13.5736755,12.3463212 13.5736755,11.4785079 L13.5736755,11.4097083 L12.7668436,8.28558029 Z" id="路径" fill="#0065B1" fill-rule="nonzero" mask="url(#mask-2)"></path>
                            <path d="M6.74380409,8.2287393 C6.84505438,8.32998959 6.97757314,8.38061473 7.11158088,8.38061473 C7.13838243,8.38061473 7.163695,8.37763678 7.19049655,8.37316986 C7.21580912,8.37763678 7.24261067,8.38061473 7.26941221,8.38061473 C7.40193097,8.38061473 7.53593871,8.32998959 7.637189,8.2287393 L10.8578416,5.00808669 C11.0603422,4.80558611 11.0603422,4.47652267 10.8578416,4.27253311 C10.655341,4.07003253 10.3262776,4.07003253 10.122288,4.27253311 L7.72354954,6.67276058 L7.72354954,1.09506077 C7.72354954,0.807688627 7.49126947,0.57540855 7.20389732,0.57540855 C6.91652517,0.57540855 6.6842451,0.807688627 6.6842451,1.09506077 L6.6842451,6.69956212 L4.25870506,4.27253311 C4.05620448,4.07003253 3.72714104,4.07003253 3.52315148,4.27253311 C3.3206509,4.47503369 3.3206509,4.80409714 3.52315148,5.00808669 L6.74380409,8.2287393 Z" id="路径" fill="#0065B1" fill-rule="nonzero" mask="url(#mask-2)" transform="translate(7.190497, 4.478012) rotate(-180.000000) translate(-7.190497, -4.478012) "></path>
                        </g>
                    </g>
                </g>
            </g>
        </g>
    </g>
</svg>